<?xml version="1.0" encoding="UTF-8"?>
<svg xmlns="http://www.w3.org/2000/svg" xmlns:xlink="http://www.w3.org/1999/xlink" width="64pt" height="64pt" viewBox="0 0 64 64" version="1.1">
<defs>
<linearGradient id="linear0" gradientUnits="userSpaceOnUse" x1="75.25" y1="102.573807" x2="75.25" y2="133.95575" gradientTransform="matrix(0.372093,0,0,0.372093,0,0)">
<stop offset="0" style="stop-color:rgb(100%,100%,100%);stop-opacity:1;"/>
<stop offset="1" style="stop-color:rgb(45.882353%,45.490196%,79.607844%);stop-opacity:1;"/>
</linearGradient>
<linearGradient id="linear1" gradientUnits="userSpaceOnUse" x1="86" y1="26.875" x2="86" y2="151.475555" gradientTransform="matrix(0.372093,0,0,0.372093,0,0)">
<stop offset="0" style="stop-color:rgb(63.921571%,63.137257%,100%);stop-opacity:1;"/>
<stop offset="1" style="stop-color:rgb(22.745098%,21.960784%,59.215689%);stop-opacity:1;"/>
</linearGradient>
<linearGradient id="linear2" gradientUnits="userSpaceOnUse" x1="131.6875" y1="26.875" x2="131.6875" y2="151.475555" gradientTransform="matrix(0.372093,0,0,0.372093,0,0)">
<stop offset="0" style="stop-color:rgb(63.921571%,63.137257%,100%);stop-opacity:1;"/>
<stop offset="1" style="stop-color:rgb(22.745098%,21.960784%,59.215689%);stop-opacity:1;"/>
</linearGradient>
</defs>
<g id="surface2345789">
<path style=" stroke:none;fill-rule:nonzero;fill:url(#linear0);" d="M 28 39 C 25.238281 39 23 41.238281 23 44 C 23 46.761719 25.238281 49 28 49 C 30.761719 49 33 46.761719 33 44 C 33 41.238281 30.761719 39 28 39 Z M 28 39 "/>
<path style=" stroke:none;fill-rule:nonzero;fill:url(#linear1);" d="M 49 11 C 42.382812 11 37 16.382812 37 23 C 37 25.949219 38.074219 28.648438 39.84375 30.742188 L 33.609375 36.976562 C 32.070312 35.742188 30.121094 35 28 35 C 25.878906 35 23.929688 35.742188 22.390625 36.976562 L 17.3125 31.898438 C 18.367188 30.542969 19 28.847656 19 27 C 19 22.589844 15.410156 19 11 19 C 6.589844 19 3 22.589844 3 27 C 3 31.410156 6.589844 35 11 35 C 12.847656 35 14.542969 34.367188 15.898438 33.3125 L 20.972656 38.390625 C 19.742188 39.929688 19 41.878906 19 44 C 19 48.964844 23.035156 53 28 53 C 32.964844 53 37 48.964844 37 44 C 37 41.878906 36.257812 39.929688 35.023438 38.390625 L 41.257812 32.15625 C 43.351562 33.925781 46.050781 35 49 35 C 55.617188 35 61 29.617188 61 23 C 61 16.382812 55.617188 11 49 11 Z M 11 33 C 7.691406 33 5 30.308594 5 27 C 5 23.691406 7.691406 21 11 21 C 14.308594 21 17 23.691406 17 27 C 17 30.308594 14.308594 33 11 33 Z M 28 51 C 24.140625 51 21 47.859375 21 44 C 21 40.140625 24.140625 37 28 37 C 31.859375 37 35 40.140625 35 44 C 35 47.859375 31.859375 51 28 51 Z M 49 33 C 43.484375 33 39 28.515625 39 23 C 39 17.484375 43.484375 13 49 13 C 54.515625 13 59 17.484375 59 23 C 59 28.515625 54.515625 33 49 33 Z M 49 33 "/>
<path style=" stroke:none;fill-rule:nonzero;fill:url(#linear2);" d="M 49 15 C 44.589844 15 41 18.589844 41 23 C 41 27.410156 44.589844 31 49 31 C 53.410156 31 57 27.410156 57 23 C 57 18.589844 53.410156 15 49 15 Z M 49 29 C 45.691406 29 43 26.308594 43 23 C 43 19.691406 45.691406 17 49 17 C 52.308594 17 55 19.691406 55 23 C 55 26.308594 52.308594 29 49 29 Z M 49 29 "/>
</g>
</svg>
